<?xml version="1.0" encoding="utf-8"?>
<!-- Generator: Adobe Illustrator 22.1.0, SVG Export Plug-In . SVG Version: 6.00 Build 0)  -->
<svg version="1.1" id="Layer_1" xmlns="http://www.w3.org/2000/svg" xmlns:xlink="http://www.w3.org/1999/xlink" x="0px" y="0px"
	 viewBox="0 0 512 512" style="enable-background:new 0 0 512 512;" xml:space="preserve">
<g>
	<path d="M459.5,31H287.4c-11.8,0-28.4,6.9-36.7,15.2L37.3,259.6c-8.4,8.4-8.4,22.1,0,30.4L222,474.7c8.4,8.4,22.1,8.4,30.4,0
		l213.4-213.4c8.4-8.4,15.2-24.9,15.2-36.7V52.5C481,40.7,471.3,31,459.5,31z M351.9,203.1c-23.8,0-43-19.3-43-43s19.3-43,43-43
		s43,19.3,43,43S375.7,203.1,351.9,203.1z"/>
</g>
</svg>
